<svg width="256" height="256" viewBox="0 0 256 256" fill="none" xmlns="http://www.w3.org/2000/svg">
  <rect width="256" height="256" rx="56" fill="#e2e8f0"/>
  <g transform="translate(33 94.31)"><path d="M29.887640449438198 51.63623595505618 0.0 37.559691011235955V29.22050561797753L29.887640449438198 15.143960674157306V22.81601123595506L10.540730337078651 31.75561797752809Q9.206460674157302 32.3560393258427 7.905547752808988 32.789676966292134Q6.6046348314606735 33.223314606741575 5.870786516853933 33.35674157303371Q6.6046348314606735 33.49016853932584 7.938904494382022 33.89044943820225Q9.273174157303371 34.29073033707866 10.540730337078651 34.89115168539326L29.887640449438198 43.83075842696629Z M119.01685393258427 62.71067415730337 142.36657303370785 0.0H151.03932584269663L127.68960674157303 62.71067415730337Z M160.1123595505618 51.63623595505618V43.964185393258425L179.45926966292132 35.024578651685395Q180.7935393258427 34.42415730337079 182.094452247191 33.99051966292135Q183.3953651685393 33.55688202247191 184.12921348314606 33.423455056179776Q183.3953651685393 33.29002808988764 182.06109550561797 32.92310393258427Q180.7268258426966 32.556179775280896 179.45926966292132 31.955758426966295L160.1123595505618 22.949438202247194V15.143960674157306L189.99999999999997 29.22050561797753V37.559691011235955Z" fill="#be123c"/></g>
  <g transform="translate(33 94.31)"><path d="M45.09831460674157 67.38061797752809V60.442415730337075H55.97261235955055Q58.77457865168539 60.442415730337075 60.175561797752806 59.074789325842694Q61.57654494382022 57.70716292134831 61.57654494382022 55.172050561797754V52.43679775280899L61.70997191011236 45.565308988764045H59.90870786516854L61.70997191011236 43.764044943820224Q61.70997191011236 48.233848314606746 59.074789325842694 50.73560393258427Q56.43960674157303 53.2373595505618 51.96980337078651 53.2373595505618Q46.36587078651685 53.2373595505618 43.06355337078651 49.434691011235955Q39.76123595505617 45.63202247191011 39.76123595505617 39.160814606741575V32.02247191011236Q39.76123595505617 25.617977528089888 43.06355337078651 21.815308988764045Q46.36587078651685 18.0126404494382 51.96980337078651 18.0126404494382Q56.43960674157303 18.0126404494382 59.074789325842694 20.51439606741573Q61.70997191011236 23.01615168539326 61.70997191011236 27.485955056179776L59.90870786516854 25.684691011235955H61.70997191011236L61.50983146067415 18.67977528089888H69.84901685393257V55.372191011235955Q69.84901685393257 60.90941011235955 66.17977528089887 64.14501404494382Q62.510533707865164 67.38061797752809 56.10603932584269 67.38061797752809ZM54.77176966292134 46.032303370786515Q57.97401685393258 46.032303370786515 59.741924157303366 44.1309691011236Q61.50983146067415 42.22963483146067 61.50983146067415 38.82724719101124V32.42275280898876Q61.50983146067415 29.02036516853933 59.741924157303366 27.119030898876407Q57.97401685393258 25.217696629213485 54.77176966292134 25.217696629213485Q51.569522471910105 25.217696629213485 49.83497191011235 27.085674157303373Q48.1004213483146 28.95365168539326 48.1004213483146 32.42275280898876V38.82724719101124Q48.1004213483146 42.296348314606746 49.83497191011235 44.16432584269663Q51.569522471910105 46.032303370786515 54.77176966292134 46.032303370786515Z M95.20014044943821 56.03932584269663Q90.53019662921348 56.03932584269663 87.02773876404494 54.27141853932584Q83.5252808988764 52.50351123595506 81.59058988764045 49.26790730337079Q79.65589887640449 46.032303370786515 79.65589887640449 41.62921348314607V32.42275280898876Q79.65589887640449 27.95294943820225 81.59058988764045 24.750702247191015Q83.5252808988764 21.548455056179776 87.02773876404494 19.78054775280899Q90.53019662921348 18.0126404494382 95.20014044943821 18.0126404494382Q102.13834269662921 18.0126404494382 106.2745786516854 21.58181179775281Q110.41081460674158 25.150983146067418 110.61095505617978 31.28862359550562H102.27176966292134Q102.07162921348315 28.41994382022472 100.2370084269663 26.852176966292134Q98.40238764044943 25.284410112359552 95.20014044943821 25.284410112359552Q91.86446629213484 25.284410112359552 89.92977528089888 27.119030898876407Q87.99508426966293 28.95365168539326 87.99508426966293 32.3560393258427V41.62921348314607Q87.99508426966293 45.03160112359551 89.92977528089888 46.899578651685395Q91.86446629213484 48.76755617977528 95.20014044943821 48.76755617977528Q98.40238764044943 48.76755617977528 100.2370084269663 47.1997893258427Q102.07162921348315 45.63202247191011 102.27176966292134 42.763342696629216H110.61095505617978Q110.41081460674158 48.90098314606742 106.2745786516854 52.47015449438202Q102.13834269662921 56.03932584269663 95.20014044943821 56.03932584269663Z" fill="#0f172a"/></g>
</svg>
