<svg width="703.8" height="101" viewBox="0 0 703.8 101" fill="none" xmlns="http://www.w3.org/2000/svg">
  <path d="M43.800000000000004 77.0 0.0 55.7V44.4L43.800000000000004 23.099999999999994V33.199999999999996L13.9 47.5Q11.9 48.4 10.100000000000001 49.05Q8.300000000000002 49.699999999999996 7.4 49.9Q8.4 50.1 10.250000000000002 50.7Q12.100000000000003 51.3 13.9 52.2L43.800000000000004 66.6Z M598.6999999999999 94.0 633.9 0.0H645.1L609.9 94.0Z M660.0000000000001 77.0V66.8L689.9000000000001 52.5Q691.9000000000001 51.599999999999994 693.7 51.0Q695.5000000000001 50.4 696.4000000000001 50.199999999999996Q695.4000000000001 50.0 693.5500000000001 49.349999999999994Q691.7 48.699999999999996 689.9000000000001 47.8L660.0000000000001 33.5V23.099999999999994L703.8000000000001 44.4V55.7Z" fill="#f43f5e"/>
  <path d="M67.5 101.0V91.7H84.4Q88.60000000000001 91.7 90.65 89.7Q92.70000000000002 87.7 92.70000000000002 83.8V78.3L92.9 68.1H90.60000000000001L92.80000000000001 66.1Q92.80000000000001 72.4 88.85000000000001 76.0Q84.9 79.6 78.2 79.6Q69.7 79.6 64.80000000000001 74.0Q59.900000000000006 68.4 59.900000000000006 58.9V47.699999999999996Q59.900000000000006 38.199999999999996 64.80000000000001 32.599999999999994Q69.7 27.0 78.2 27.0Q84.9 27.0 88.85000000000001 30.65Q92.80000000000001 34.3 92.80000000000001 40.599999999999994L90.60000000000001 38.5H92.80000000000001L92.70000000000002 28.0H103.4V84.0Q103.4 91.9 98.4 96.45Q93.4 101.0 84.5 101.0ZM81.7 70.3Q86.80000000000001 70.3 89.75000000000001 67.15Q92.70000000000002 64.0 92.70000000000002 58.4V48.3Q92.70000000000002 42.699999999999996 89.75000000000001 39.55Q86.80000000000001 36.4 81.7 36.4Q76.4 36.4 73.55000000000001 39.45Q70.7 42.5 70.7 48.3V58.4Q70.7 64.1 73.55000000000001 67.19999999999999Q76.4 70.3 81.7 70.3Z M142.3 84.0Q135.5 84.0 130.35 81.45Q125.2 78.9 122.45 74.05000000000001Q119.7 69.2 119.7 62.7V48.3Q119.7 41.699999999999996 122.45 36.89999999999999Q125.2 32.099999999999994 130.35 29.549999999999997Q135.5 27.0 142.3 27.0Q152.20000000000002 27.0 158.20000000000002 32.2Q164.20000000000002 37.4 164.5 46.4H153.70000000000002Q153.4 41.699999999999996 150.4 39.099999999999994Q147.4 36.5 142.3 36.5Q136.8 36.5 133.60000000000002 39.55Q130.4 42.599999999999994 130.4 48.199999999999996V62.7Q130.4 68.3 133.60000000000002 71.4Q136.8 74.5 142.3 74.5Q147.4 74.5 150.4 71.9Q153.4 69.3 153.70000000000002 64.6H164.5Q164.20000000000002 73.6 158.20000000000002 78.8Q152.20000000000002 84.0 142.3 84.0Z M182.1 83.0V28.0H192.5V38.5H195.10000000000002L191.8 45.0Q191.8 36.099999999999994 195.70000000000002 31.549999999999997Q199.60000000000002 27.0 207.3 27.0Q216.10000000000002 27.0 221.25 32.45Q226.4 37.9 226.4 47.4V51.099999999999994H215.3V48.3Q215.3 42.4 212.35000000000002 39.25Q209.4 36.099999999999994 204.10000000000002 36.099999999999994Q198.8 36.099999999999994 195.85000000000002 39.3Q192.9 42.5 192.9 48.3V83.0Z M261.8 84.0Q251.9 84.0 246.0 78.25Q240.1 72.5 240.1 62.599999999999994V28.0H250.9V62.599999999999994Q250.9 68.3 253.8 71.44999999999999Q256.7 74.6 261.8 74.6Q267.0 74.6 269.95 71.44999999999999Q272.9 68.3 272.9 62.599999999999994V28.0H283.7V62.599999999999994Q283.7 72.5 277.75 78.25Q271.8 84.0 261.8 84.0Z M300.3 83.0V72.8L330.00000000000006 37.599999999999994H301.20000000000005V28.0H342.40000000000003V38.199999999999996L312.3 73.4H343.50000000000006V83.0Z" fill="#f8fafc"/>
  <path d="M381.90000000000003 84.0Q377.90000000000003 84.0 375.5 81.65Q373.1 79.3 373.1 75.3Q373.1 71.2 375.5 68.75Q377.90000000000003 66.3 381.90000000000003 66.3Q386.00000000000006 66.3 388.35 68.75Q390.70000000000005 71.2 390.70000000000005 75.3Q390.70000000000005 79.3 388.35 81.65Q386.00000000000006 84.0 381.90000000000003 84.0Z M438.00000000000006 84.0Q429.70000000000005 84.0 424.70000000000005 78.4Q419.70000000000005 72.8 419.70000000000005 63.3V47.8Q419.70000000000005 38.199999999999996 424.70000000000005 32.599999999999994Q429.70000000000005 27.0 438.00000000000006 27.0Q444.8 27.0 448.80000000000007 30.75Q452.80000000000007 34.5 452.80000000000007 41.0L450.50000000000006 38.5H453.00000000000006L452.70000000000005 25.699999999999996V10.0H463.50000000000006V83.0H452.80000000000007V72.5H450.50000000000006L452.80000000000007 70.0Q452.80000000000007 76.5 448.80000000000007 80.25Q444.8 84.0 438.00000000000006 84.0ZM441.70000000000005 74.6Q446.8 74.6 449.75 71.44999999999999Q452.70000000000005 68.3 452.70000000000005 62.7V48.3Q452.70000000000005 42.699999999999996 449.75 39.55Q446.8 36.4 441.70000000000005 36.4Q436.40000000000003 36.4 433.40000000000003 39.45Q430.40000000000003 42.5 430.40000000000003 48.3V62.7Q430.40000000000003 68.5 433.40000000000003 71.55Q436.40000000000003 74.6 441.70000000000005 74.6Z M501.90000000000003 84.0Q495.20000000000005 84.0 490.15000000000003 81.35Q485.1 78.7 482.40000000000003 73.9Q479.70000000000005 69.1 479.70000000000005 62.7V48.3Q479.70000000000005 41.8 482.40000000000003 37.05Q485.1 32.3 490.15000000000003 29.65Q495.20000000000005 27.0 501.90000000000003 27.0Q508.70000000000005 27.0 513.7 29.65Q518.7 32.3 521.4000000000001 37.05Q524.1 41.8 524.1 48.3V58.099999999999994H490.1V62.7Q490.1 68.8 493.15000000000003 72.0Q496.20000000000005 75.2 502.00000000000006 75.2Q506.70000000000005 75.2 509.6 73.55000000000001Q512.5 71.9 513.2 68.7H523.9000000000001Q522.7 75.7 516.7 79.85Q510.70000000000005 84.0 501.90000000000003 84.0ZM513.7 51.599999999999994V48.199999999999996Q513.7 42.199999999999996 510.70000000000005 38.89999999999999Q507.70000000000005 35.599999999999994 501.90000000000003 35.599999999999994Q496.20000000000005 35.599999999999994 493.15000000000003 38.89999999999999Q490.1 42.199999999999996 490.1 48.3V50.8L514.5 50.699999999999996Z M554.8 83.0 536.6 28.0H547.6L558.9 63.2Q560.0 66.3 560.8499999999999 69.44999999999999Q561.6999999999999 72.6 562.1 74.4Q562.6 72.6 563.45 69.44999999999999Q564.3 66.3 565.1999999999999 63.2L576.3 28.0H587.1999999999999L569.0 83.0Z" fill="#818cf8"/>
</svg>
